<svg id="グループ_657" data-name="グループ 657" xmlns="http://www.w3.org/2000/svg" width="44.242" height="44.242" viewBox="0 0 44.242 44.242">
  <rect id="長方形_1091" data-name="長方形 1091" width="44.242" height="44.242" transform="translate(0 0)" fill="none"/>
  <path id="パス_692" data-name="パス 692" d="M895,515.275c0-9.334-9.358-16.934-20.862-16.934s-20.861,7.594-20.861,16.934c0,8.368,7.422,15.378,17.447,16.7.679.147,1.6.442,1.838,1.031a4.29,4.29,0,0,1,.068,1.886s-.245,1.472-.295,1.786c-.091.527-.419,2.062,1.807,1.125s12.013-7.068,16.391-12.112h0A15.064,15.064,0,0,0,895,515.275Zm-28.221,4.992a.4.4,0,0,1-.4.4h-5.856a.4.4,0,0,1-.4-.4h0v-9.1a.4.4,0,0,1,.4-.4H862a.4.4,0,0,1,.4.4V518.4h3.983a.4.4,0,0,1,.4.4Zm3.534,0a.4.4,0,0,1-.4.4h-1.472a.4.4,0,0,1-.4-.4v-9.1a.4.4,0,0,1,.4-.4h1.472a.4.4,0,0,1,.4.4Zm10.072,0a.4.4,0,0,1-.4.4h-1.473a.408.408,0,0,1-.1-.013h0l-.028-.009h-.012l-.019-.009-.019-.009h-.012l-.025-.015h0a.407.407,0,0,1-.1-.1l-4.17-5.633v5.406a.4.4,0,0,1-.4.4H872.15a.4.4,0,0,1-.4-.4v-9.1a.4.4,0,0,1,.4-.4h1.558l.023.007h.013l.023.01h.012l.022.012.012.007.021.015.01.007.022.018h.007l.023.025h0a.4.4,0,0,1,.032.041l4.166,5.625v-5.407a.4.4,0,0,1,.4-.4h1.473a.4.4,0,0,1,.4.4Zm8.08-7.625a.4.4,0,0,1-.4.4h-3.976v1.536h3.976a.4.4,0,0,1,.4.4v1.473a.4.4,0,0,1-.4.4h-3.976v1.536h3.976a.4.4,0,0,1,.4.4v1.472a.4.4,0,0,1-.4.4h-5.861a.4.4,0,0,1-.4-.4h0v-9.088h0v-.009a.4.4,0,0,1,.4-.4h5.861a.4.4,0,0,1,.4.4Z" transform="translate(-852.283 -495.873)" fill="#f4efef"/>
</svg>
